<svg width="139" height="29" viewBox="0 0 139 29" fill="none" xmlns="http://www.w3.org/2000/svg">
<path d="M13.794 13.948C13.794 17.2627 13.0387 19.514 11.528 20.702C10.8973 21.2007 10.2153 21.5453 9.482 21.736C8.74867 21.912 7.788 22 6.6 22H1.012L0.946 21.23C1.00467 21.186 1.30533 21.0907 1.848 20.944C2.39067 20.7973 2.71333 20.724 2.816 20.724C2.728 15.004 2.65467 10.7507 2.596 7.964C1.936 7.876 1.29067 7.7 0.66 7.436C0.689333 6.93733 0.726 6.65867 0.77 6.6H6.314C7.83933 6.6 9.042 6.73933 9.922 7.018C10.8167 7.29667 11.594 7.81 12.254 8.558C13.2807 9.68733 13.794 11.484 13.794 13.948ZM11.66 14.124C11.66 12.144 11.286 10.6553 10.538 9.658C9.80467 8.646 8.56533 8.14 6.82 8.14H4.576C4.51733 10.8387 4.444 14.96 4.356 20.504H6.666C8.67533 20.504 10.01 20.0567 10.67 19.162C11.33 18.2527 11.66 16.5733 11.66 14.124ZM45.1064 8.008L44.8864 20.504L46.7344 20.68C46.7344 21.0907 46.6097 21.5307 46.3604 22H41.3004L41.2344 21.23C41.909 20.9953 42.5764 20.8193 43.2364 20.702C43.207 19.7487 43.1557 17.7833 43.0824 14.806C43.0237 11.8287 42.9724 9.526 42.9284 7.898C42.3417 7.78067 41.6817 7.60467 40.9484 7.37L41.0144 6.6H46.5144C46.7637 7.06933 46.8884 7.50933 46.8884 7.92C46.1404 7.97867 45.5464 8.008 45.1064 8.008ZM55.8838 7.964C55.8104 10.428 55.7298 14.608 55.6418 20.504L57.4898 20.68C57.4898 21.0907 57.3651 21.5307 57.1158 22H52.0558L51.9898 21.23C52.8404 20.922 53.5151 20.746 54.0138 20.702C53.8671 15.0407 53.7498 10.7947 53.6618 7.964H50.4498L49.9218 10.208L48.6458 10.12C48.4258 9.22533 48.3158 8.316 48.3158 7.392C48.3158 7.216 48.3304 6.952 48.3598 6.6H61.0318C61.0611 6.79067 61.0758 7.084 61.0758 7.48C61.0758 8.272 60.9731 9.13733 60.7678 10.076C60.4451 10.164 60.0198 10.208 59.4918 10.208L58.9418 7.964H55.8838ZM64.5978 19.756C64.6858 20.1667 64.7298 20.6947 64.7298 21.34C64.7298 21.9853 64.4732 22.682 63.9598 23.43C63.4612 24.178 62.9992 24.684 62.5738 24.948C62.3245 24.8453 62.0898 24.6767 61.8698 24.442C62.0312 23.958 62.4932 23.276 63.2558 22.396C63.4318 22.1907 63.5345 22.0733 63.5638 22.044C63.0505 22.044 62.6985 22.0293 62.5078 22C62.4198 21.7067 62.3758 21.3253 62.3758 20.856C62.3758 20.372 62.3905 20.0273 62.4198 19.822C62.7425 19.7487 63.0798 19.712 63.4318 19.712C63.7985 19.712 64.1872 19.7267 64.5978 19.756ZM76.0098 9.328L75.7898 20.504L77.6378 20.68C77.6378 21.0907 77.5132 21.5307 77.2638 22H72.2038L72.1378 21.23C72.9298 20.966 73.6045 20.79 74.1618 20.702C74.1325 19.7487 74.0812 17.7833 74.0078 14.806C73.9492 11.8287 73.8978 9.526 73.8538 7.898C73.2965 7.81 72.6365 7.634 71.8738 7.37L71.9398 6.6H76.2958L84.3258 19.426L83.9518 7.898C83.4092 7.79533 82.7565 7.61933 81.9938 7.37L82.0598 6.6H87.5598C87.8092 7.06933 87.9338 7.50933 87.9338 7.92C87.2005 7.97867 86.6138 8.008 86.1738 8.008L85.9538 22H83.8198L76.0098 9.328ZM97.6613 20.57C100.624 20.57 102.105 18.4873 102.105 14.322C102.105 10.142 100.624 8.052 97.6613 8.052C96.2679 8.052 95.1313 8.25733 94.2513 8.668C93.4593 10.2373 93.0633 12.0487 93.0633 14.102C93.0633 16.1407 93.4006 17.732 94.0753 18.876C94.7646 20.0053 95.9599 20.57 97.6613 20.57ZM90.9073 14.388C90.9073 11.8067 91.4353 9.81933 92.4913 8.426C93.5619 7.018 95.2926 6.314 97.6833 6.314C100.089 6.314 101.783 6.95933 102.765 8.25C103.763 9.526 104.261 11.462 104.261 14.058C104.261 16.654 103.726 18.6707 102.655 20.108C101.599 21.5453 99.9053 22.264 97.5733 22.264C95.2559 22.264 93.5619 21.5967 92.4913 20.262C91.4353 18.9273 90.9073 16.9693 90.9073 14.388ZM123.367 19.69L126.271 7.898C125.685 7.78067 125.025 7.60467 124.291 7.37L124.357 6.6H129.857C130.107 7.06933 130.231 7.50933 130.231 7.92C129.425 7.964 128.721 8.008 128.119 8.052L124.291 22H122.223L118.439 9.086L115.007 22H112.719L108.781 7.898C108.195 7.78067 107.535 7.60467 106.801 7.37L106.867 6.6H112.587C112.837 7.06933 112.961 7.50933 112.961 7.92C112.243 7.964 111.583 8.008 110.981 8.052L113.775 19.69H113.863C114.333 17.666 114.963 15.224 115.755 12.364C116.562 9.504 117.097 7.59 117.361 6.622H119.737L123.279 19.69H123.367ZM134.415 21.956C134.385 21.78 134.371 21.4793 134.371 21.054C134.371 20.6287 134.415 20.2253 134.503 19.844C134.913 19.8147 135.295 19.8 135.647 19.8C136.013 19.8 136.358 19.8367 136.681 19.91C136.71 20.1153 136.725 20.4307 136.725 20.856C136.725 21.2667 136.681 21.6773 136.593 22.088C136.241 22.132 135.859 22.154 135.449 22.154C135.038 22.154 134.693 22.088 134.415 21.956ZM136.175 18.546C136.087 18.5607 135.918 18.568 135.669 18.568C135.419 18.568 135.192 18.5533 134.987 18.524L134.459 6.16C134.899 6.13067 135.265 6.116 135.559 6.116C135.852 6.116 136.16 6.15267 136.483 6.226L136.175 18.546Z" fill="url(#paint0_linear_5_219)"/>
<path d="M29 13.8143V14.5043C28.9992 16.1216 28.5453 17.6953 27.7061 18.9907C26.8668 20.286 25.6871 21.2336 24.343 21.6922C22.9988 22.1508 21.5622 22.0957 20.2474 21.5352C18.9326 20.9747 17.81 19.9389 17.0471 18.5821C16.2842 17.2253 15.9219 15.6203 16.0141 14.0065C16.1063 12.3927 16.6482 10.8565 17.5589 9.6271C18.4696 8.39766 19.7003 7.54083 21.0675 7.1844C22.4347 6.82798 23.8652 6.99105 25.1455 7.64929" stroke="url(#paint1_linear_5_219)" stroke-width="2" stroke-linecap="round" stroke-linejoin="round"/>
<path d="M29 8.5043L22.5 16.0118L20.55 13.7618" stroke="url(#paint2_linear_5_219)" stroke-width="2" stroke-linecap="round" stroke-linejoin="round"/>
<defs>
<linearGradient id="paint0_linear_5_219" x1="69.5" y1="0" x2="69.5" y2="29" gradientUnits="userSpaceOnUse">
<stop stop-color="#FF0000"/>
<stop offset="1" stop-color="#001AFF"/>
</linearGradient>
<linearGradient id="paint1_linear_5_219" x1="22.5" y1="7" x2="22.5" y2="22" gradientUnits="userSpaceOnUse">
<stop stop-color="#FF0000"/>
<stop offset="1" stop-color="#001AFF"/>
</linearGradient>
<linearGradient id="paint2_linear_5_219" x1="24.775" y1="8.5043" x2="24.775" y2="16.0118" gradientUnits="userSpaceOnUse">
<stop stop-color="#FF0000"/>
<stop offset="1" stop-color="#001AFF"/>
</linearGradient>
</defs>
</svg>
